<mxfile host="65bd71144e">
    <diagram id="xkNQzJSyLSwB87aTUWNY" name="第 1 页">
        <mxGraphModel dx="834" dy="616" grid="1" gridSize="10" guides="1" tooltips="1" connect="1" arrows="1" fold="1" page="1" pageScale="1" pageWidth="827" pageHeight="1169" math="0" shadow="0">
            <root>
                <mxCell id="0"/>
                <mxCell id="1" parent="0"/>
                <mxCell id="2" value="App-1 (&lt;span style=&quot;background-color: rgb(255, 255, 0);&quot;&gt;&lt;font color=&quot;#000000&quot;&gt;transactional.id = &quot;trans_1&quot;&lt;/font&gt;&lt;/span&gt;)" style="rounded=0;whiteSpace=wrap;html=1;verticalAlign=top;align=left;spacingLeft=4;fontStyle=1;fillColor=#FF3333;fontColor=#FFFFFF;strokeColor=none;shadow=1;" vertex="1" parent="1">
                    <mxGeometry x="80" y="110" width="240" height="210" as="geometry"/>
                </mxCell>
                <mxCell id="8" value="App-1@instance_1" style="rounded=0;whiteSpace=wrap;html=1;verticalAlign=top;align=left;spacingLeft=4;fontStyle=1;fontSize=11;" vertex="1" parent="1">
                    <mxGeometry x="90" y="140" width="220" height="50" as="geometry"/>
                </mxCell>
                <mxCell id="30" value="×" style="edgeStyle=none;html=1;exitX=1;exitY=0.5;exitDx=0;exitDy=0;entryX=0;entryY=0.5;entryDx=0;entryDy=0;fontSize=14;fontColor=#FF3333;strokeColor=#FF3333;dashed=1;fontStyle=1" edge="1" parent="1" source="5" target="25">
                    <mxGeometry relative="1" as="geometry"/>
                </mxCell>
                <mxCell id="5" value="Producer (&lt;span style=&quot;background-color: rgb(255, 255, 0);&quot;&gt;producer.id = 1, epoch = 1&lt;/span&gt;)" style="rounded=0;whiteSpace=wrap;html=1;fontStyle=1;fontSize=10;" vertex="1" parent="1">
                    <mxGeometry x="100" y="165" width="200" height="20" as="geometry"/>
                </mxCell>
                <mxCell id="11" value="App-1@instance_2" style="rounded=0;whiteSpace=wrap;html=1;verticalAlign=top;align=left;spacingLeft=4;fontStyle=1;fontSize=11;" vertex="1" parent="1">
                    <mxGeometry x="90" y="200" width="220" height="50" as="geometry"/>
                </mxCell>
                <mxCell id="31" value="×" style="edgeStyle=none;html=1;exitX=1;exitY=0.5;exitDx=0;exitDy=0;entryX=0;entryY=0.5;entryDx=0;entryDy=0;dashed=1;strokeColor=#FF3333;fontSize=14;fontColor=#FF3333;fontStyle=1" edge="1" parent="1" source="12" target="25">
                    <mxGeometry relative="1" as="geometry"/>
                </mxCell>
                <mxCell id="12" value="Producer (&lt;span style=&quot;background-color: rgb(255, 255, 0);&quot;&gt;producer.id = 1, epoch = 2&lt;/span&gt;)" style="rounded=0;whiteSpace=wrap;html=1;fontStyle=1;fontSize=10;" vertex="1" parent="1">
                    <mxGeometry x="100" y="225" width="200" height="20" as="geometry"/>
                </mxCell>
                <mxCell id="16" value="App-1@instance_3" style="rounded=0;whiteSpace=wrap;html=1;verticalAlign=top;align=left;spacingLeft=4;fontStyle=1;fontSize=11;" vertex="1" parent="1">
                    <mxGeometry x="90" y="260" width="220" height="50" as="geometry"/>
                </mxCell>
                <mxCell id="28" value="√" style="edgeStyle=none;html=1;exitX=1;exitY=0.5;exitDx=0;exitDy=0;entryX=0;entryY=0.5;entryDx=0;entryDy=0;fontSize=14;fontColor=#00CC00;strokeColor=#00CC00;fontStyle=1" edge="1" parent="1" source="17" target="25">
                    <mxGeometry x="0.0136" y="2" relative="1" as="geometry">
                        <mxPoint as="offset"/>
                    </mxGeometry>
                </mxCell>
                <mxCell id="17" value="Producer (&lt;span style=&quot;background-color: rgb(255, 255, 0);&quot;&gt;producer.id = 1, epoch = 3&lt;/span&gt;)" style="rounded=0;whiteSpace=wrap;html=1;fontStyle=1;fontSize=10;" vertex="1" parent="1">
                    <mxGeometry x="100" y="285" width="200" height="20" as="geometry"/>
                </mxCell>
                <mxCell id="18" value="App-2 (&lt;font style=&quot;background-color: rgb(255, 255, 0);&quot; color=&quot;#000000&quot;&gt;transactional.id = &quot;trans_2&quot;&lt;/font&gt;)" style="rounded=0;whiteSpace=wrap;html=1;verticalAlign=top;align=left;spacingLeft=4;fontStyle=1;fillColor=#3399FF;strokeColor=none;fontColor=#FFFFFF;shadow=1;" vertex="1" parent="1">
                    <mxGeometry x="80" y="330" width="240" height="150" as="geometry"/>
                </mxCell>
                <mxCell id="19" value="App-2@instance_1" style="rounded=0;whiteSpace=wrap;html=1;verticalAlign=top;align=left;spacingLeft=4;fontStyle=1;fontSize=11;" vertex="1" parent="1">
                    <mxGeometry x="90" y="360" width="220" height="50" as="geometry"/>
                </mxCell>
                <mxCell id="20" value="Producer (&lt;span style=&quot;background-color: rgb(255, 255, 0);&quot;&gt;producer.id = 2, epoch = 1&lt;/span&gt;)" style="rounded=0;whiteSpace=wrap;html=1;fontStyle=1;fontSize=10;" vertex="1" parent="1">
                    <mxGeometry x="100" y="385" width="200" height="20" as="geometry"/>
                </mxCell>
                <mxCell id="21" value="App-2@instance_2" style="rounded=0;whiteSpace=wrap;html=1;verticalAlign=top;align=left;spacingLeft=4;fontStyle=1;fontSize=11;" vertex="1" parent="1">
                    <mxGeometry x="90" y="420" width="220" height="50" as="geometry"/>
                </mxCell>
                <mxCell id="22" value="Producer (&lt;span style=&quot;background-color: rgb(255, 255, 0);&quot;&gt;producer.id = 2, epoch = 2&lt;/span&gt;)" style="rounded=0;whiteSpace=wrap;html=1;fontStyle=1;fontSize=10;" vertex="1" parent="1">
                    <mxGeometry x="100" y="445" width="200" height="20" as="geometry"/>
                </mxCell>
                <mxCell id="25" value="Broker" style="rounded=0;whiteSpace=wrap;html=1;shadow=1;labelBackgroundColor=none;fontSize=12;fontColor=#FFFFFF;fillColor=#000066;strokeColor=none;fontStyle=1" vertex="1" parent="1">
                    <mxGeometry x="480" y="120" width="120" height="60" as="geometry"/>
                </mxCell>
                <mxCell id="26" value="1 app : 1 transactional.id&lt;br&gt;1 transactional.id&amp;nbsp; : 1 producer.id&lt;br&gt;1 producer.id : n epoch" style="shape=callout;whiteSpace=wrap;html=1;perimeter=calloutPerimeter;shadow=1;labelBackgroundColor=none;strokeColor=none;fontSize=12;fontColor=#FFFFFF;fillColor=#660066;size=15;position=0.25;fontStyle=1;align=center;" vertex="1" parent="1">
                    <mxGeometry x="10" y="10" width="220" height="75" as="geometry"/>
                </mxCell>
                <mxCell id="27" value="" style="shape=flexArrow;endArrow=classic;startArrow=classic;html=1;fontSize=12;fontColor=#000000;" edge="1" parent="1">
                    <mxGeometry width="100" height="100" relative="1" as="geometry">
                        <mxPoint x="9" y="515" as="sourcePoint"/>
                        <mxPoint x="819" y="515" as="targetPoint"/>
                    </mxGeometry>
                </mxCell>
            </root>
        </mxGraphModel>
    </diagram>
</mxfile>